<?xml version="1.0" encoding="utf-8"?>
<!-- Generator: Adobe Illustrator 19.2.1, SVG Export Plug-In . SVG Version: 6.00 Build 0)  -->
<svg version="1.1" id="_x39_768b10a-80e7-4bbe-b326-6ab87bae55d2"
	 xmlns="http://www.w3.org/2000/svg" xmlns:xlink="http://www.w3.org/1999/xlink" x="0px" y="0px" viewBox="0 0 232.3 87.9"
	 style="enable-background:new 0 0 232.3 87.9;" xml:space="preserve">
<style type="text/css">
	.st0{fill:#002D5C;}
</style>
<title>LgoNoMagnif</title>
<g>
	<g>
		<polygon class="st0" points="1.9,46 18.1,46 18.1,1.1 1.9,1.1 		"/>
		<polygon class="st0" points="165.2,46 181.2,46 181.2,1.1 165.2,1.1 		"/>
		<polygon class="st0" points="196.4,46 225.9,46 225.9,31.5 212.6,31.5 212.6,1.1 196.4,1.1 		"/>
		<polygon class="st0" points="50.6,23.1 64.2,46 79.6,46 79.6,1.1 64.2,1.1 64.2,24.3 50.8,1.1 35.3,1.1 35.3,46 50.6,46 		"/>
		<g>
			<path class="st0" d="M121.5,1.1h-13.8c0,0-14.6,9.9-14.6,26.8c0,0-0.3,19,19.2,19c0,0,10.4,0.7,19.6-7.3c0,0-18.7,4.4-18.7-8.8
				c0,0-1.7-9.9,11.9-16L121.5,1.1z"/>
			<path class="st0" d="M134.7,36.6L124.6,1.1h15.8l13.1,45.5C153.4,46.6,138.3,49,134.7,36.6L134.7,36.6z"/>
		</g>
	</g>
	<g>
		<path class="st0" d="M1.9,75.7v-7.5h0.9v7.5H1.9z"/>
		<path class="st0" d="M9.2,73.7c0,0.7-0.3,1.2-0.7,1.6c-0.5,0.4-1.1,0.5-1.9,0.5c-0.9,0-1.6-0.1-2-0.4v-0.8
			c0.3,0.1,0.7,0.3,1.1,0.3c0.4,0.1,0.7,0.1,1.1,0.1c0.5,0,1.1-0.1,1.3-0.3c0.3-0.3,0.4-0.5,0.4-0.9c0-0.3,0-0.5-0.1-0.7
			c-0.1-0.1-0.3-0.3-0.5-0.4s-0.7-0.3-1.1-0.5c-0.7-0.3-1.2-0.5-1.5-0.9C5.1,70.9,5,70.5,5,70c0-0.5,0.3-1.1,0.7-1.3
			c0.4-0.4,1.1-0.5,1.7-0.5c0.8,0,1.5,0.1,2,0.4l-0.5,0.8c-0.7-0.3-1.2-0.4-1.7-0.4c-0.4,0-0.8,0.1-1.1,0.3
			c-0.3,0.1-0.4,0.5-0.4,0.8c0,0.3,0,0.5,0.1,0.7c0.1,0.1,0.3,0.3,0.5,0.4s0.5,0.3,1.1,0.4C8.2,71.7,8.7,72,9,72.4
			C9.1,72.8,9.2,73.3,9.2,73.7z"/>
		<path class="st0" d="M13.6,75.7h-0.9v-6.7h-2.3v-0.8h5.6v0.8h-2.4V75.7z"/>
		<path class="st0" d="M17.4,75.7v-7.5h0.9v7.5H17.4z"/>
		<path class="st0" d="M23,75.7h-0.8v-6.7h-2.4v-0.8h5.6v0.8H23C23,69.1,23,75.7,23,75.7z"/>
		<path class="st0" d="M32.5,68.3v4.8c0,0.8-0.3,1.5-0.8,2s-1.2,0.7-2.1,0.7s-1.6-0.3-2.1-0.8c-0.5-0.5-0.8-1.2-0.8-2v-4.8h0.9v4.9
			c0,0.7,0.1,1.1,0.5,1.5c0.4,0.3,0.8,0.5,1.5,0.5s1.1-0.1,1.5-0.5c0.4-0.4,0.5-0.8,0.5-1.5v-4.8C31.5,68.3,32.5,68.3,32.5,68.3z"/>
		<path class="st0" d="M37.1,75.7h-0.9v-6.7h-2.4v-0.8h5.7v0.8h-2.4V75.7z"/>
		<path class="st0" d="M47.2,72c0,1.2-0.3,2.1-0.9,2.8c-0.7,0.7-1.5,1.1-2.5,1.1s-2-0.4-2.5-1.1c-0.5-0.7-0.9-1.6-0.9-2.8
			s0.3-2.1,0.9-2.8c0.5-0.7,1.5-1.1,2.5-1.1s1.9,0.4,2.5,1.1C46.9,69.9,47.2,70.8,47.2,72z M41.3,72c0,1.1,0.3,1.7,0.7,2.3
			c0.4,0.5,1.1,0.8,1.9,0.8s1.5-0.3,1.9-0.8s0.7-1.3,0.7-2.3c0-1.1-0.3-1.7-0.7-2.3c-0.4-0.5-1.1-0.8-1.9-0.8s-1.5,0.3-1.9,0.8
			C41.4,70.3,41.3,71.1,41.3,72z"/>
		<path class="st0" d="M58.2,75.7h-0.9l-4.1-6.3l0,0c0,0.8,0.1,1.5,0.1,2v4.3h-0.8v-7.5h0.9l4,6.3l0,0c0-0.1,0-0.4,0-0.9
			c0-0.5,0-0.8,0-1.1v-4.3h0.8V75.7z"/>
		<path class="st0" d="M65.3,75.7l-0.9-2.4h-2.9l-0.9,2.4h-0.9l2.9-7.5h0.7l3.1,7.5H65.3z M64.1,72.7l-0.9-2.3
			c-0.1-0.3-0.3-0.7-0.4-1.1c-0.1,0.3-0.1,0.7-0.3,1.1l-0.9,2.3H64.1z"/>
		<path class="st0" d="M72.5,75.7h-5.1v-0.7l4-6h-3.9v-0.8h4.9v0.7l-4,6h4.1v0.8H72.5z"/>
		<path class="st0" d="M74.1,75.7v-7.5h0.9v7.5H74.1z"/>
		<path class="st0" d="M83.7,72c0,1.2-0.3,2.1-0.9,2.8c-0.7,0.7-1.5,1.1-2.5,1.1s-2-0.4-2.5-1.1c-0.5-0.7-0.9-1.6-0.9-2.8
			s0.3-2.1,0.9-2.8c0.5-0.7,1.5-1.1,2.5-1.1c1.1,0,1.9,0.4,2.5,1.1S83.7,70.8,83.7,72z M77.9,72c0,1.1,0.3,1.7,0.7,2.3
			c0.4,0.5,1.1,0.8,1.9,0.8s1.5-0.3,1.9-0.8s0.7-1.3,0.7-2.3c0-1.1-0.3-1.7-0.7-2.3c-0.4-0.5-1.1-0.8-1.9-0.8
			c-0.8,0-1.5,0.3-1.9,0.8C78,70.3,77.9,71.1,77.9,72z"/>
		<path class="st0" d="M91.5,75.7h-0.9l-4.1-6.3l0,0c0,0.8,0.1,1.5,0.1,2v4.3h-0.8v-7.5h0.9l4,6.3l0,0c0-0.1,0-0.4,0-0.9
			c0-0.5,0-0.8,0-1.1v-4.3h0.8V75.7z"/>
		<path class="st0" d="M98.6,75.7l-0.9-2.4h-2.9l-0.9,2.4h-0.8l2.9-7.5h0.7l2.9,7.5H98.6z M97.4,72.7l-0.9-2.3
			c-0.1-0.3-0.3-0.7-0.4-1.1c-0.1,0.3-0.1,0.7-0.3,1.1l-0.9,2.3H97.4z"/>
		<path class="st0" d="M101,75.7v-7.5h0.9v6.7h3.3v0.8H101z"/>
		<path class="st0" d="M110.7,75.7h-4.1v-7.5h4.1v0.8h-3.3v2.4h3.1v0.8h-3.1v2.8h3.3V75.7z"/>
		<path class="st0" d="M120.7,70.5c0,0.8-0.3,1.3-0.8,1.7c-0.5,0.4-1.2,0.7-2.3,0.7h-0.9v2.8h-0.9v-7.5h2
			C119.8,68.3,120.7,69.1,120.7,70.5z M116.8,72.1h0.8c0.8,0,1.3-0.1,1.7-0.4c0.4-0.3,0.5-0.7,0.5-1.2s-0.1-0.8-0.5-1.1
			c-0.3-0.3-0.8-0.4-1.5-0.4H117v3.1H116.8z"/>
		<path class="st0" d="M126.6,75.7h-4.3v-7.5h4.1v0.8h-3.3v2.4h3.2v0.8h-3.1v2.8h3.3V75.7z"/>
		<path class="st0" d="M129.1,72.7v3.1h-0.9v-7.5h2.1c0.9,0,1.6,0.1,2,0.5c0.4,0.4,0.7,0.9,0.7,1.6c0,0.9-0.5,1.6-1.5,2l2,3.3h-1.1
			l-1.9-3.1C130.6,72.7,129.1,72.7,129.1,72.7z M129.1,71.9h1.2c0.7,0,1.1-0.1,1.3-0.4c0.3-0.3,0.4-0.7,0.4-1.1
			c0-0.5-0.1-0.8-0.4-1.1c-0.3-0.1-0.7-0.3-1.3-0.3h-1.1v2.8H129.1z"/>
		<path class="st0" d="M138.3,75.7v-7.5h0.9v6.7h3.3v0.8H138.3z"/>
		<path class="st0" d="M143.5,68.3L143.5,68.3c0,0.4-0.1,0.8-0.3,1.3c-0.1,0.4-0.4,0.9-0.5,1.2h-0.7c0.3-0.9,0.4-1.9,0.5-2.5H143.5z
			"/>
		<path class="st0" d="M149.2,75.7l-0.9-2.4h-2.9l-0.9,2.4h-0.9l2.9-7.5h0.7l2.9,7.5H149.2z M148,72.7l-0.9-2.3
			c-0.1-0.3-0.3-0.7-0.4-1.1c-0.1,0.3-0.1,0.7-0.3,1.1l-0.9,2.3H148z"/>
		<path class="st0" d="M156,73.7c0,0.7-0.3,1.2-0.7,1.6c-0.5,0.4-1.1,0.5-2,0.5s-1.6-0.1-2-0.4v-0.8c0.3,0.1,0.7,0.3,0.9,0.3
			c0.4,0.1,0.7,0.1,1.1,0.1c0.5,0,1.1-0.1,1.3-0.3c0.3-0.3,0.4-0.5,0.4-0.9c0-0.3,0-0.5-0.1-0.7s-0.3-0.3-0.5-0.4
			c-0.3-0.1-0.7-0.3-1.1-0.5c-0.7-0.3-1.2-0.5-1.5-0.9c-0.3-0.4-0.4-0.8-0.4-1.3s0.3-1.1,0.7-1.3c0.4-0.4,1.1-0.5,1.7-0.5
			c0.8,0,1.5,0.1,2,0.4l-0.3,0.8c-0.7-0.3-1.2-0.4-1.7-0.4c-0.4,0-0.8,0.1-1.1,0.3c-0.3,0.1-0.4,0.5-0.4,0.8c0,0.3,0,0.5,0.1,0.7
			s0.3,0.3,0.5,0.4c0.3,0.1,0.5,0.3,1.1,0.4c0.8,0.3,1.3,0.5,1.6,0.9C155.8,72.8,156,73.3,156,73.7z"/>
		<path class="st0" d="M162,73.7c0,0.7-0.3,1.2-0.7,1.6c-0.5,0.4-1.1,0.5-2,0.5s-1.6-0.1-2-0.4v-0.8c0.3,0.1,0.7,0.3,0.9,0.3
			c0.4,0.1,0.7,0.1,1.1,0.1c0.5,0,1.1-0.1,1.3-0.3c0.3-0.3,0.4-0.5,0.4-0.9c0-0.3,0-0.5-0.1-0.7s-0.3-0.3-0.5-0.4
			c-0.3-0.1-0.7-0.3-1.1-0.5c-0.7-0.3-1.2-0.5-1.5-0.9c-0.3-0.4-0.4-0.8-0.4-1.3s0.3-1.1,0.7-1.3c0.4-0.4,1.1-0.5,1.7-0.5
			c0.8,0,1.5,0.1,2,0.4l-0.3,0.8c-0.7-0.3-1.2-0.4-1.7-0.4c-0.4,0-0.8,0.1-1.1,0.3c-0.3,0.1-0.4,0.5-0.4,0.8c0,0.3,0,0.5,0.1,0.7
			s0.3,0.3,0.5,0.4c0.3,0.1,0.5,0.3,1.1,0.4c0.8,0.3,1.3,0.5,1.6,0.9C161.8,72.8,162,73.3,162,73.7z"/>
		<path class="st0" d="M163.7,75.7v-7.5h0.9v7.5H163.7z"/>
		<path class="st0" d="M170,68.9c-0.8,0-1.5,0.3-2,0.8c-0.5,0.5-0.7,1.3-0.7,2.3c0,0.9,0.3,1.7,0.7,2.3c0.4,0.5,1.1,0.8,2,0.8
			c0.5,0,1.1-0.1,1.7-0.3v0.8c-0.5,0.1-1.2,0.3-1.9,0.3c-1.1,0-2-0.3-2.5-1.1c-0.5-0.7-0.9-1.6-0.9-2.8c0-0.8,0.1-1.5,0.4-2
			c0.3-0.5,0.7-1.1,1.2-1.3c0.5-0.3,1.2-0.5,1.9-0.5c0.8,0,1.5,0.1,2,0.4l-0.4,0.8C171.2,69.1,170.5,68.9,170,68.9z"/>
		<path class="st0" d="M179.3,68.3v4.8c0,0.8-0.3,1.5-0.8,2c-0.5,0.5-1.2,0.7-2.1,0.7c-0.9,0-1.6-0.3-2.1-0.8
			c-0.5-0.5-0.8-1.2-0.8-2v-4.8h0.9v4.9c0,0.7,0.1,1.1,0.5,1.5c0.4,0.3,0.8,0.5,1.5,0.5s1.1-0.1,1.5-0.5c0.4-0.4,0.5-0.8,0.5-1.5
			v-4.8C178.4,68.3,179.3,68.3,179.3,68.3z"/>
		<path class="st0" d="M182.4,72.7v3.1h-0.9v-7.5h2c0.9,0,1.6,0.1,2,0.5s0.7,0.9,0.7,1.6c0,0.9-0.5,1.6-1.5,2l2,3.3h-1.1l-1.9-3.1
			C183.7,72.7,182.4,72.7,182.4,72.7z M182.4,71.9h1.2c0.7,0,1.1-0.1,1.3-0.4c0.3-0.3,0.4-0.7,0.4-1.1c0-0.5-0.1-0.8-0.4-1.1
			c-0.3-0.3-0.8-0.3-1.5-0.3h-1.1V71.9z"/>
		<path class="st0" d="M193.5,75.7l-0.9-2.4h-2.9l-0.9,2.4h-0.9l2.9-7.5h0.7l3.1,7.5H193.5z M192.3,72.7l-0.9-2.3
			c-0.1-0.3-0.3-0.7-0.4-1.1c-0.1,0.3-0.1,0.7-0.3,1.1l-0.9,2.3H192.3z"/>
		<path class="st0" d="M200.7,75.7h-5.1v-0.7l4-6h-3.9v-0.8h4.9v0.7l-4,6h4.1v0.8H200.7z"/>
		<path class="st0" d="M202.3,75.7v-7.5h0.9v7.5H202.3z"/>
		<path class="st0" d="M211.9,72c0,1.2-0.3,2.1-0.9,2.8c-0.7,0.7-1.5,1.1-2.5,1.1c-1.1,0-2-0.4-2.5-1.1c-0.5-0.7-0.9-1.6-0.9-2.8
			s0.3-2.1,0.9-2.8c0.5-0.7,1.5-1.1,2.5-1.1s1.9,0.4,2.5,1.1C211.6,69.9,211.9,70.8,211.9,72z M205.9,72c0,1.1,0.3,1.7,0.7,2.3
			c0.4,0.5,1.1,0.8,1.9,0.8c0.8,0,1.5-0.3,1.9-0.8c0.4-0.5,0.7-1.3,0.7-2.3c0-1.1-0.3-1.7-0.7-2.3c-0.4-0.5-1.1-0.8-1.9-0.8
			s-1.5,0.3-1.9,0.8C206.2,70.3,205.9,71.1,205.9,72z"/>
		<path class="st0" d="M219.6,75.7h-0.9l-4.1-6.3l0,0c0,0.8,0.1,1.5,0.1,2v4.3h-0.8v-7.5h0.9l4,6.3l0,0c0-0.1,0-0.4,0-0.9
			c0-0.5,0-0.8,0-1.1v-4.3h0.8V75.7z"/>
		<path class="st0" d="M226.1,75.7h-4.1v-7.5h4.1v0.8h-3.3v2.4h3.1v0.8h-3.1v2.8h3.3V75.7z"/>
		<path class="st0" d="M5.1,79.5c-0.8,0-1.5,0.3-2,0.8c-0.5,0.5-0.7,1.3-0.7,2.3c0,0.9,0.3,1.7,0.7,2.3c0.4,0.5,1.1,0.8,2,0.8
			c0.5,0,1.1-0.1,1.7-0.3v0.8c-0.5,0.1-1.2,0.3-1.9,0.3c-1.1,0-2-0.3-2.5-1.1c-0.5-0.7-0.9-1.6-0.9-2.8c0-0.8,0.1-1.5,0.4-2
			s0.7-1.1,1.2-1.3c0.5-0.3,1.2-0.5,1.9-0.5c0.8,0,1.5,0.1,2,0.4l-0.4,0.8C6.3,79.6,5.8,79.5,5.1,79.5z"/>
		<path class="st0" d="M14.9,82.5c0,1.2-0.3,2.1-0.9,2.8c-0.7,0.7-1.5,1.1-2.5,1.1s-2-0.4-2.5-1.1c-0.5-0.7-0.9-1.6-0.9-2.8
			s0.3-2.1,0.9-2.8c0.5-0.7,1.5-1.1,2.5-1.1s1.9,0.4,2.5,1.1C14.6,80.4,14.9,81.3,14.9,82.5z M9,82.5c0,1.1,0.3,1.7,0.7,2.3
			c0.4,0.5,1.1,0.8,1.9,0.8c0.8,0,1.5-0.3,1.9-0.8c0.4-0.5,0.7-1.3,0.7-2.3c0-1.1-0.3-1.7-0.7-2.3c-0.4-0.5-1.1-0.8-1.9-0.8
			c-0.8,0-1.5,0.3-1.9,0.8C9.2,80.7,9,81.5,9,82.5z"/>
		<path class="st0" d="M22.6,86.3h-0.9L17.5,80l0,0c0,0.8,0.1,1.5,0.1,2v4.3h-0.8v-7.5h0.9l4,6.3l0,0c0-0.1,0-0.4,0-0.9
			c0-0.5,0-0.8,0-1.1v-4.3h0.8V86.3z"/>
		<path class="st0" d="M27.3,86.3h-0.9v-6.7h-2.4v-0.8h5.6v0.8h-2.4v6.7H27.3z"/>
		<path class="st0" d="M31.9,83.1v3.1H31v-7.5h2c0.9,0,1.6,0.1,2,0.5c0.4,0.4,0.7,0.9,0.7,1.6c0,0.9-0.5,1.6-1.5,2l2,3.3h-1.1
			l-1.9-3.1C33.3,83.1,31.9,83.1,31.9,83.1z M31.9,82.4h1.2c0.7,0,1.1-0.1,1.3-0.4c0.3-0.3,0.4-0.7,0.4-1.1c0-0.5-0.1-0.8-0.4-1.1
			c-0.3-0.3-0.8-0.3-1.5-0.3h-1.1V82.4z"/>
		<path class="st0" d="M44.2,82.5c0,1.2-0.3,2.1-0.9,2.8c-0.7,0.7-1.5,1.1-2.5,1.1c-1.1,0-2-0.4-2.5-1.1c-0.5-0.7-0.9-1.6-0.9-2.8
			s0.3-2.1,0.9-2.8c0.5-0.7,1.5-1.1,2.5-1.1c1.1,0,1.9,0.4,2.5,1.1C44,80.4,44.2,81.3,44.2,82.5z M38.3,82.5c0,1.1,0.3,1.7,0.7,2.3
			c0.4,0.5,1.1,0.8,1.9,0.8c0.8,0,1.5-0.3,1.9-0.8s0.7-1.3,0.7-2.3c0-1.1-0.3-1.7-0.7-2.3c-0.4-0.5-1.1-0.8-1.9-0.8
			c-0.8,0-1.5,0.3-1.9,0.8C38.5,80.7,38.3,81.5,38.3,82.5z"/>
		<path class="st0" d="M52.8,82.3h2.5v3.6c-0.4,0.1-0.8,0.3-1.2,0.3c-0.4,0-0.9,0.1-1.5,0.1c-1.1,0-2-0.4-2.7-1.1
			c-0.7-0.7-0.9-1.6-0.9-2.8c0-0.8,0.1-1.5,0.5-2c0.3-0.5,0.8-1.1,1.3-1.3c0.5-0.3,1.3-0.4,2-0.4c0.8,0,1.6,0.1,2.3,0.4l-0.4,0.8
			c-0.7-0.3-1.3-0.4-2-0.4c-0.9,0-1.6,0.3-2.1,0.8c-0.5,0.5-0.8,1.3-0.8,2.3c0,1.1,0.3,1.7,0.8,2.3c0.5,0.5,1.2,0.8,2.1,0.8
			c0.5,0,1.1,0,1.5-0.1v-2.3h-1.7v-0.9H52.8z"/>
		<path class="st0" d="M57.4,86.3v-7.5h0.8v6.7h3.3v0.8H57.4z"/>
		<path class="st0" d="M63,86.3v-7.5H64v7.5H63z"/>
		<path class="st0" d="M69.6,86.3v-7.5h0.9v7.5H69.6z"/>
		<path class="st0" d="M78.5,86.3h-0.9L73.5,80l0,0c0,0.8,0.1,1.5,0.1,2v4.3h-0.8v-7.5h0.9l4,6.3l0,0c0-0.1,0-0.4,0-0.9
			c0-0.5,0-0.8,0-1.1v-4.3h0.8V86.3z"/>
		<path class="st0" d="M81.6,86.3h-0.9v-7.5h4.3v0.8h-3.3v2.7h3.1v0.8h-3.1V86.3z"/>
		<path class="st0" d="M92.9,82.5c0,1.2-0.3,2.1-0.9,2.8c-0.7,0.7-1.5,1.1-2.5,1.1c-1.1,0-2-0.4-2.5-1.1c-0.5-0.7-0.9-1.6-0.9-2.8
			s0.3-2.1,0.9-2.8c0.5-0.7,1.5-1.1,2.5-1.1c1.1,0,1.9,0.4,2.5,1.1C92.7,80.4,92.9,81.3,92.9,82.5z M87.1,82.5
			c0,1.1,0.3,1.7,0.7,2.3c0.4,0.5,1.1,0.8,1.9,0.8c0.8,0,1.5-0.3,1.9-0.8c0.4-0.5,0.7-1.3,0.7-2.3c0-1.1-0.3-1.7-0.7-2.3
			c-0.4-0.5-1.1-0.8-1.9-0.8c-0.8,0-1.5,0.3-1.9,0.8C87.2,80.7,87.1,81.5,87.1,82.5z"/>
		<path class="st0" d="M95.8,83.1v3.1h-0.9v-7.5H97c0.9,0,1.6,0.1,2,0.5c0.4,0.4,0.7,0.9,0.7,1.6c0,0.9-0.5,1.6-1.5,2l2,3.3h-1.1
			l-1.9-3.1C97.2,83.1,95.8,83.1,95.8,83.1z M95.8,82.4H97c0.7,0,1.1-0.1,1.3-0.4s0.4-0.7,0.4-1.1c0-0.5-0.1-0.8-0.4-1.1
			c-0.3-0.3-0.8-0.3-1.5-0.3h-1.1V82.4z"/>
		<path class="st0" d="M104,86.3h-0.9v-6.7h-2.4v-0.8h5.6v0.8h-2.4v6.7H104z"/>
		<path class="st0" d="M113.5,78.8v4.8c0,0.8-0.3,1.5-0.8,2s-1.2,0.7-2.1,0.7s-1.6-0.3-2.1-0.8c-0.5-0.5-0.8-1.2-0.8-2v-4.8h0.9v4.9
			c0,0.7,0.1,1.1,0.5,1.5c0.4,0.3,0.8,0.5,1.5,0.5c0.7,0,1.1-0.1,1.5-0.5c0.4-0.4,0.5-0.8,0.5-1.5v-4.8
			C112.6,78.8,113.5,78.8,113.5,78.8z"/>
		<path class="st0" d="M121.5,86.3h-0.9l-4.1-6.3l0,0c0,0.8,0.1,1.5,0.1,2v4.3h-0.9v-7.5h0.9l4,6.3l0,0c0-0.1,0-0.4,0-0.9
			c0-0.5,0-0.8,0-1.1v-4.3h0.8v7.5H121.5z"/>
		<path class="st0" d="M123.7,86.3v-7.5h0.9v7.5H123.7z"/>
		<path class="st0" d="M134.5,84.3c0,0.7-0.3,1.2-0.7,1.6c-0.5,0.4-1.1,0.5-2,0.5s-1.6-0.1-2-0.4v-0.8c0.3,0.1,0.7,0.3,0.9,0.3
			c0.4,0.1,0.7,0.1,1.1,0.1c0.5,0,1.1-0.1,1.3-0.3c0.3-0.3,0.4-0.5,0.4-0.9c0-0.3,0-0.5-0.1-0.7s-0.3-0.3-0.5-0.4
			c-0.3-0.1-0.7-0.3-1.1-0.5c-0.7-0.3-1.2-0.5-1.5-0.9c-0.3-0.4-0.4-0.8-0.4-1.3s0.3-1.1,0.7-1.3c0.4-0.3,1.1-0.5,1.7-0.5
			c0.8,0,1.5,0.1,2,0.4l-0.3,0.8c-0.7-0.3-1.2-0.4-1.7-0.4c-0.4,0-0.8,0.1-1.1,0.3c-0.3,0.1-0.4,0.5-0.4,0.8c0,0.3,0,0.5,0.1,0.7
			s0.3,0.3,0.5,0.4c0.3,0.1,0.5,0.3,1.1,0.4c0.8,0.3,1.3,0.5,1.6,0.9C134.3,83.3,134.5,83.7,134.5,84.3z"/>
		<path class="st0" d="M141.8,78.8v4.8c0,0.8-0.3,1.5-0.8,2s-1.2,0.7-2.1,0.7s-1.6-0.3-2.1-0.8c-0.5-0.5-0.8-1.2-0.8-2v-4.8h0.9v4.9
			c0,0.7,0.1,1.1,0.5,1.5c0.4,0.3,0.8,0.5,1.5,0.5s1.1-0.1,1.5-0.5c0.4-0.4,0.5-0.8,0.5-1.5v-4.8C140.9,78.8,141.8,78.8,141.8,78.8z
			"/>
		<path class="st0" d="M143.9,86.3v-7.5h0.9v6.7h3.3v0.8H143.9z"/>
		<path class="st0" d="M153,86.3v-7.5h0.9v6.7h3.3v0.8H153z"/>
		<path class="st0" d="M164,86.3l-0.9-2.4h-2.9l-0.9,2.4h-0.9l2.9-7.5h0.7l2.9,7.5H164z M162.8,83.1l-0.9-2.3
			c-0.1-0.3-0.3-0.7-0.4-1.1c-0.1,0.3-0.1,0.7-0.3,1.1l-0.9,2.3H162.8z"/>
		<path class="st0" d="M170,78.8h0.9l-2.7,7.5h-0.8l-2.7-7.5h0.9l1.7,4.8c0.1,0.5,0.4,1.1,0.5,1.6c0.1-0.5,0.3-1.1,0.5-1.6L170,78.8
			z"/>
		<path class="st0" d="M178.5,82.5c0,1.2-0.3,2.1-0.9,2.8c-0.7,0.7-1.5,1.1-2.5,1.1s-2-0.4-2.5-1.1c-0.5-0.7-0.9-1.6-0.9-2.8
			s0.3-2.1,0.9-2.8c0.5-0.7,1.5-1.1,2.5-1.1c1.1,0,1.9,0.4,2.5,1.1C178.1,80.4,178.5,81.3,178.5,82.5z M172.5,82.5
			c0,1.1,0.3,1.7,0.7,2.3c0.4,0.5,1.1,0.8,1.9,0.8c0.8,0,1.5-0.3,1.9-0.8c0.4-0.5,0.7-1.3,0.7-2.3c0-1.1-0.3-1.7-0.7-2.3
			c-0.4-0.5-1.1-0.8-1.9-0.8c-0.8,0-1.5,0.3-1.9,0.8C172.8,80.7,172.5,81.5,172.5,82.5z"/>
		<path class="st0" d="M181.2,83.1v3.1h-0.9v-7.5h2c0.9,0,1.6,0.1,2,0.5s0.7,0.9,0.7,1.6c0,0.9-0.5,1.6-1.5,2l2,3.3h-1.1l-1.9-3.1
			C182.5,83.1,181.2,83.1,181.2,83.1z M181.2,82.4h1.2c0.7,0,1.1-0.1,1.3-0.4s0.4-0.7,0.4-1.1c0-0.5-0.1-0.8-0.4-1.1
			s-0.8-0.3-1.5-0.3h-1.1L181.2,82.4L181.2,82.4z"/>
		<path class="st0" d="M193.5,82.5c0,1.2-0.3,2.1-0.9,2.8c-0.7,0.7-1.5,1.1-2.5,1.1c-1.1,0-2-0.4-2.5-1.1c-0.5-0.7-0.9-1.6-0.9-2.8
			s0.3-2.1,0.9-2.8c0.5-0.7,1.5-1.1,2.5-1.1s1.9,0.4,2.5,1.1C193.2,80.4,193.5,81.3,193.5,82.5z M187.5,82.5c0,1.1,0.3,1.7,0.7,2.3
			c0.4,0.5,1.1,0.8,1.9,0.8c0.8,0,1.5-0.3,1.9-0.8c0.4-0.5,0.7-1.3,0.7-2.3c0-1.1-0.3-1.7-0.7-2.3c-0.4-0.5-1.1-0.8-1.9-0.8
			c-0.8,0-1.5,0.3-1.9,0.8C187.7,80.7,187.5,81.5,187.5,82.5z"/>
	</g>
</g>
</svg>
